<?xml version="1.0" standalone="no"?>
<!DOCTYPE svg PUBLIC "-//W3C//DTD SVG 20010904//EN"
 "http://www.w3.org/TR/2001/REC-SVG-20010904/DTD/svg10.dtd">
<svg version="1.0" xmlns="http://www.w3.org/2000/svg"
 width="640.000000pt" height="640.000000pt" viewBox="0 0 640.000000 640.000000"
 preserveAspectRatio="xMidYMid meet">

<g transform="translate(0.000000,640.000000) scale(0.100000,-0.100000)"
fill="#000000" stroke="none">
<path d="M0 3200 l0 -3200 3200 0 3200 0 0 3200 0 3200 -3200 0 -3200 0 0
-3200z m4361 2341 c72 -28 142 -88 164 -143 26 -66 21 -172 -14 -308 -42 -162
-111 -365 -169 -500 -120 -277 -215 -593 -262 -870 -17 -99 -23 -194 -30 -455
-5 -181 -14 -375 -20 -430 -51 -446 -169 -811 -346 -1077 -213 -321 -612 -593
-1017 -694 -140 -35 -348 -44 -468 -20 -262 54 -444 214 -540 477 -94 255
-110 585 -48 954 44 259 108 456 215 665 76 147 149 251 297 425 134 155 239
248 416 367 178 120 238 166 319 246 76 76 213 246 352 437 52 72 155 209 229
305 337 435 478 576 636 633 68 24 207 18 286 -12z"/>
<path d="M2844 3292 c-111 -39 -207 -106 -306 -211 -194 -208 -298 -462 -285
-701 10 -204 104 -332 265 -362 230 -43 530 169 690 487 142 281 146 566 12
719 -83 95 -228 121 -376 68z m130 -96 c46 -19 76 -61 76 -105 -1 -155 -248
-320 -383 -256 -37 17 -67 65 -67 107 1 62 78 168 157 215 85 50 159 63 217
39z m-603 -383 c-12 -20 -14 -14 -5 12 4 9 9 14 11 11 3 -2 0 -13 -6 -23z
m-34 -235 c-2 -13 -4 -5 -4 17 -1 22 1 32 4 23 2 -10 2 -28 0 -40z m134 -355
c13 -16 12 -17 -3 -4 -10 7 -18 15 -18 17 0 8 8 3 21 -13z m307 -120 c-10 -2
-26 -2 -35 0 -10 3 -2 5 17 5 19 0 27 -2 18 -5z"/>
<path d="M3485 1654 c-69 -61 -266 -188 -365 -236 -197 -96 -396 -150 -622
-170 -248 -21 -365 10 -492 131 l-69 66 7 -43 c22 -141 158 -268 325 -303 221
-46 676 95 956 296 134 96 343 296 308 295 -4 -1 -26 -17 -48 -36z"/>
</g>
</svg>
