<svg width="225" height="36" viewBox="0 0 225 36" fill="none" xmlns="http://www.w3.org/2000/svg">
<path d="M7.56 27.432C6.648 27.432 5.808 27.264 5.04 26.928C4.272 26.592 3.6 26.12 3.024 25.512C2.464 24.904 2.024 24.2 1.704 23.4C1.4 22.6 1.248 21.736 1.248 20.808V20.376C1.248 19.464 1.4 18.608 1.704 17.808C2.008 17.008 2.432 16.304 2.976 15.696C3.536 15.088 4.192 14.616 4.944 14.28C5.712 13.928 6.56 13.752 7.488 13.752C8.464 13.752 9.352 13.96 10.152 14.376C10.952 14.776 11.608 15.408 12.12 16.272C12.632 17.136 12.92 18.256 12.984 19.632L12.024 18.096V9.48H14.328V27H12.504V21.312H13.176C13.112 22.768 12.808 23.952 12.264 24.864C11.72 25.76 11.032 26.416 10.2 26.832C9.384 27.232 8.504 27.432 7.56 27.432ZM7.872 25.416C8.656 25.416 9.368 25.24 10.008 24.888C10.648 24.536 11.16 24.032 11.544 23.376C11.928 22.704 12.12 21.92 12.12 21.024V19.92C12.12 19.04 11.92 18.296 11.52 17.688C11.136 17.064 10.616 16.592 9.96 16.272C9.32 15.936 8.616 15.768 7.848 15.768C7 15.768 6.248 15.968 5.592 16.368C4.952 16.768 4.448 17.328 4.08 18.048C3.728 18.768 3.552 19.616 3.552 20.592C3.552 21.568 3.736 22.424 4.104 23.16C4.472 23.88 4.984 24.44 5.64 24.84C6.296 25.224 7.04 25.416 7.872 25.416ZM24.2029 27.432C23.0829 27.432 22.1149 27.24 21.2989 26.856C20.4829 26.472 19.8189 25.968 19.3069 25.344C18.7949 24.704 18.4109 23.992 18.1549 23.208C17.9149 22.424 17.7949 21.624 17.7949 20.808V20.376C17.7949 19.544 17.9149 18.736 18.1549 17.952C18.4109 17.168 18.7949 16.464 19.3069 15.84C19.8189 15.2 20.4669 14.696 21.2509 14.328C22.0509 13.944 22.9869 13.752 24.0589 13.752C25.4509 13.752 26.5949 14.056 27.4909 14.664C28.4029 15.256 29.0749 16.024 29.5069 16.968C29.9549 17.912 30.1789 18.92 30.1789 19.992V21.024H18.8029V19.296H28.4989L27.9709 20.232C27.9709 19.32 27.8269 18.536 27.5389 17.88C27.2509 17.208 26.8189 16.688 26.2429 16.32C25.6669 15.952 24.9389 15.768 24.0589 15.768C23.1469 15.768 22.3869 15.976 21.7789 16.392C21.1869 16.808 20.7389 17.376 20.4349 18.096C20.1469 18.816 20.0029 19.648 20.0029 20.592C20.0029 21.504 20.1469 22.328 20.4349 23.064C20.7389 23.784 21.2029 24.36 21.8269 24.792C22.4509 25.208 23.2429 25.416 24.2029 25.416C25.2109 25.416 26.0269 25.192 26.6509 24.744C27.2909 24.296 27.6749 23.776 27.8029 23.184H29.9629C29.7869 24.064 29.4349 24.824 28.9069 25.464C28.3789 26.104 27.7149 26.592 26.9149 26.928C26.1149 27.264 25.2109 27.432 24.2029 27.432ZM36.0924 27L31.7244 14.184H34.1244L38.3964 27H36.0924ZM36.6684 27V25.176H39.4524V27H36.6684ZM37.7724 27L41.4924 14.184H43.7484L39.9564 27H37.7724Z" fill="#E9F0FF"/>
<path d="M64.7344 31.3906C63.1458 31.3906 61.7526 31.2083 60.5547 30.8438C59.3698 30.4661 58.3607 29.9518 57.5273 29.3008C56.694 28.6497 56.0299 27.875 55.5352 26.9766C55.0404 26.0651 54.7018 25.069 54.5195 23.9883H59.0312C59.1875 24.6523 59.4154 25.2708 59.7148 25.8438C60.0143 26.4167 60.3919 26.918 60.8477 27.3477C61.3164 27.7643 61.8633 28.0964 62.4883 28.3438C63.1263 28.5781 63.862 28.6953 64.6953 28.6953C65.2422 28.6953 65.7826 28.6367 66.3164 28.5195C66.8633 28.4023 67.3516 28.2135 67.7812 27.9531C68.2109 27.6797 68.556 27.3346 68.8164 26.918C69.0768 26.4883 69.207 25.9609 69.207 25.3359C69.207 24.5547 69.0052 23.8581 68.6016 23.2461C68.1979 22.6341 67.6641 22.0807 67 21.5859C66.3359 21.0781 65.5807 20.6094 64.7344 20.1797C63.888 19.75 63.0221 19.3203 62.1367 18.8906C61.2513 18.4479 60.3854 17.9857 59.5391 17.5039C58.6927 17.0221 57.9375 16.4883 57.2734 15.9023C56.6094 15.3034 56.0755 14.6328 55.6719 13.8906C55.2682 13.1354 55.0664 12.276 55.0664 11.3125C55.0664 10.2578 55.2943 9.28776 55.75 8.40234C56.2188 7.50391 56.8893 6.72917 57.7617 6.07812C58.6341 5.41406 59.7018 4.89974 60.9648 4.53516C62.2279 4.15755 63.6667 3.96875 65.2812 3.96875C66.6094 3.96875 67.8138 4.15104 68.8945 4.51562C69.9753 4.88021 70.9258 5.38802 71.7461 6.03906C72.5794 6.67708 73.276 7.43229 73.8359 8.30469C74.3958 9.16406 74.8255 10.0885 75.125 11.0781H71.043C70.8086 10.4531 70.5352 9.85417 70.2227 9.28125C69.9102 8.70833 69.526 8.20703 69.0703 7.77734C68.6146 7.34766 68.0612 7.00911 67.4102 6.76172C66.7591 6.5013 65.9844 6.37109 65.0859 6.37109C64.2396 6.37109 63.5234 6.48177 62.9375 6.70312C62.3646 6.92448 61.9023 7.21094 61.5508 7.5625C61.1992 7.90104 60.9453 8.28516 60.7891 8.71484C60.6328 9.13151 60.5547 9.54167 60.5547 9.94531C60.5547 10.6484 60.763 11.2865 61.1797 11.8594C61.5964 12.4323 62.1432 12.9661 62.8203 13.4609C63.5104 13.9557 64.2917 14.431 65.1641 14.8867C66.0365 15.3294 66.9219 15.7786 67.8203 16.2344C68.7318 16.6901 69.6237 17.1719 70.4961 17.6797C71.3685 18.1745 72.1432 18.7214 72.8203 19.3203C73.5104 19.9193 74.0638 20.5833 74.4805 21.3125C74.8971 22.0417 75.1055 22.862 75.1055 23.7734C75.1055 24.8542 74.8841 25.8568 74.4414 26.7812C73.9987 27.7057 73.3411 28.513 72.4688 29.2031C71.5964 29.8802 70.5091 30.4141 69.207 30.8047C67.918 31.1953 66.4271 31.3906 64.7344 31.3906ZM92.8984 17.3477C92.8984 16.319 92.7292 15.5378 92.3906 15.0039C92.0651 14.457 91.6354 14.1836 91.1016 14.1836C90.8672 14.1836 90.5677 14.2357 90.2031 14.3398C89.8516 14.444 89.474 14.5938 89.0703 14.7891C88.6667 14.9844 88.2565 15.2122 87.8398 15.4727C87.4362 15.7331 87.0586 16.0195 86.707 16.332V31H80.5742V3.03125L84.8906 0.804688H86.707V12.6211C87.6315 11.944 88.6602 11.4427 89.793 11.1172C90.9388 10.7786 92.0586 10.6094 93.1523 10.6094C93.9596 10.6094 94.7148 10.7721 95.418 11.0977C96.1341 11.4102 96.7526 11.8464 97.2734 12.4062C97.8073 12.9531 98.224 13.5977 98.5234 14.3398C98.8359 15.082 98.9922 15.8698 98.9922 16.7031V31H92.8984V17.3477ZM105.066 12.8164L109.324 10.5898H111.141V31H105.066V12.8164ZM104.812 4.02734C104.812 3.6237 104.897 3.23958 105.066 2.875C105.236 2.51042 105.47 2.19792 105.77 1.9375C106.069 1.67708 106.414 1.46875 106.805 1.3125C107.195 1.15625 107.618 1.07812 108.074 1.07812C108.53 1.07812 108.953 1.15625 109.344 1.3125C109.747 1.46875 110.092 1.67708 110.379 1.9375C110.678 2.19792 110.913 2.51042 111.082 2.875C111.251 3.23958 111.336 3.6237 111.336 4.02734C111.336 4.43099 111.251 4.8151 111.082 5.17969C110.913 5.53125 110.678 5.83724 110.379 6.09766C110.092 6.35807 109.747 6.56641 109.344 6.72266C108.953 6.87891 108.53 6.95703 108.074 6.95703C107.618 6.95703 107.195 6.87891 106.805 6.72266C106.414 6.56641 106.069 6.35807 105.77 6.09766C105.47 5.83724 105.236 5.53125 105.066 5.17969C104.897 4.8151 104.812 4.43099 104.812 4.02734ZM129.324 17.3477C129.324 16.8398 129.266 16.3906 129.148 16C129.044 15.5964 128.895 15.2643 128.699 15.0039C128.517 14.7305 128.302 14.5286 128.055 14.3984C127.82 14.2552 127.573 14.1836 127.312 14.1836C127.052 14.1836 126.753 14.2357 126.414 14.3398C126.076 14.444 125.717 14.5938 125.34 14.7891C124.975 14.9714 124.598 15.1992 124.207 15.4727C123.816 15.7461 123.445 16.0521 123.094 16.3906V31H117V12.8164L121.277 10.5898H123.094V12.6211C124.031 11.944 125.034 11.4492 126.102 11.1367C127.169 10.8112 128.23 10.6484 129.285 10.6484C130.105 10.6484 130.88 10.8112 131.609 11.1367C132.352 11.4492 132.996 11.8789 133.543 12.4258C134.103 12.9727 134.546 13.6172 134.871 14.3594C135.197 15.0885 135.359 15.8698 135.359 16.7031V31H129.324V17.3477ZM141.57 4.51562H147.898L157.059 22.6016L166.082 4.51562H172.273V31H165.789V13.7344L157.137 31H154.637L145.691 13.5391V31H141.57V4.51562ZM178.816 12.8164L183.074 10.5898H184.891V31H178.816V12.8164ZM178.562 4.02734C178.562 3.6237 178.647 3.23958 178.816 2.875C178.986 2.51042 179.22 2.19792 179.52 1.9375C179.819 1.67708 180.164 1.46875 180.555 1.3125C180.945 1.15625 181.368 1.07812 181.824 1.07812C182.28 1.07812 182.703 1.15625 183.094 1.3125C183.497 1.46875 183.842 1.67708 184.129 1.9375C184.428 2.19792 184.663 2.51042 184.832 2.875C185.001 3.23958 185.086 3.6237 185.086 4.02734C185.086 4.43099 185.001 4.8151 184.832 5.17969C184.663 5.53125 184.428 5.83724 184.129 6.09766C183.842 6.35807 183.497 6.56641 183.094 6.72266C182.703 6.87891 182.28 6.95703 181.824 6.95703C181.368 6.95703 180.945 6.87891 180.555 6.72266C180.164 6.56641 179.819 6.35807 179.52 6.09766C179.22 5.83724 178.986 5.53125 178.816 5.17969C178.647 4.8151 178.562 4.43099 178.562 4.02734ZM203.074 17.3477C203.074 16.8398 203.016 16.3906 202.898 16C202.794 15.5964 202.645 15.2643 202.449 15.0039C202.267 14.7305 202.052 14.5286 201.805 14.3984C201.57 14.2552 201.323 14.1836 201.062 14.1836C200.802 14.1836 200.503 14.2357 200.164 14.3398C199.826 14.444 199.467 14.5938 199.09 14.7891C198.725 14.9714 198.348 15.1992 197.957 15.4727C197.566 15.7461 197.195 16.0521 196.844 16.3906V31H190.75V12.8164L195.027 10.5898H196.844V12.6211C197.781 11.944 198.784 11.4492 199.852 11.1367C200.919 10.8112 201.98 10.6484 203.035 10.6484C203.855 10.6484 204.63 10.8112 205.359 11.1367C206.102 11.4492 206.746 11.8789 207.293 12.4258C207.853 12.9727 208.296 13.6172 208.621 14.3594C208.947 15.0885 209.109 15.8698 209.109 16.7031V31H203.074V17.3477ZM215.184 12.8164L219.441 10.5898H221.258V31H215.184V12.8164ZM214.93 4.02734C214.93 3.6237 215.014 3.23958 215.184 2.875C215.353 2.51042 215.587 2.19792 215.887 1.9375C216.186 1.67708 216.531 1.46875 216.922 1.3125C217.312 1.15625 217.736 1.07812 218.191 1.07812C218.647 1.07812 219.07 1.15625 219.461 1.3125C219.865 1.46875 220.21 1.67708 220.496 1.9375C220.796 2.19792 221.03 2.51042 221.199 2.875C221.368 3.23958 221.453 3.6237 221.453 4.02734C221.453 4.43099 221.368 4.8151 221.199 5.17969C221.03 5.53125 220.796 5.83724 220.496 6.09766C220.21 6.35807 219.865 6.56641 219.461 6.72266C219.07 6.87891 218.647 6.95703 218.191 6.95703C217.736 6.95703 217.312 6.87891 216.922 6.72266C216.531 6.56641 216.186 6.35807 215.887 6.09766C215.587 5.83724 215.353 5.53125 215.184 5.17969C215.014 4.8151 214.93 4.43099 214.93 4.02734Z" fill="#FBF1FF"/>
</svg>
